<?xml version="1.0" encoding="UTF-8" standalone="no"?><svg xmlns="http://www.w3.org/2000/svg" xmlns:xlink="http://www.w3.org/1999/xlink" clip-rule="evenodd" stroke-miterlimit="10" viewBox="0 0 1024 768"><desc>SVG generated by Keynote</desc><defs></defs><g transform="matrix(1.00, 0.00, -0.00, -1.00, 0.0, 768.0)"><path d="M 0.0 768.0 L 1024.0 768.0 L 1024.0 0.0 L 0.0 0.0 Z M 0.0 768.0 " fill="#FEFFFF"></path><g><clipPath id="clip0x6000010a3600"><path d="M 388.0 543.0 L 636.0 543.0 L 636.0 161.0 L 388.0 161.0 Z M 388.1 543.4 "></path></clipPath><g clip-path="url(#clip0x6000010a3600)"><image xlink:href="../../ED215DD7-F3B6-4AC6-9951-997DF03659EF/assets/9A9EEAFC68C7C77FCFDB69615B2B0FC0.png" width="518.00" height="202.00" transform="matrix(0.48, 0.00, -0.00, -0.48, 388.1, 400.6)"></image></g></g><text xml:space="preserve" font-family="Helvetica-Light,Helvetica" font-size="80.0" fill="#000000" transform="matrix(1.00, 0.00, -0.00, -1.00, 343.2, 567.8)">l</text><text xml:space="preserve" font-family="Helvetica-Light,Helvetica" font-size="80.0" fill="#000000" transform="matrix(1.00, 0.00, -0.00, -1.00, 360.9, 567.8)">i</text><text xml:space="preserve" font-family="Helvetica-Light,Helvetica" font-size="80.0" fill="#000000" transform="matrix(1.00, 0.00, -0.00, -1.00, 378.7, 567.8)">q</text><text xml:space="preserve" font-family="Helvetica-Light,Helvetica" font-size="80.0" fill="#000000" transform="matrix(1.00, 0.00, -0.00, -1.00, 427.6, 567.8)">u</text><text xml:space="preserve" font-family="Helvetica-Light,Helvetica" font-size="80.0" fill="#000000" transform="matrix(1.00, 0.00, -0.00, -1.00, 472.0, 567.8)">i</text><text xml:space="preserve" font-family="Helvetica-Light,Helvetica" font-size="80.0" fill="#000000" transform="matrix(1.00, 0.00, -0.00, -1.00, 489.8, 567.8)">d</text><text xml:space="preserve" font-family="Helvetica-Light,Helvetica" font-size="80.0" fill="#000000" transform="matrix(1.00, 0.00, -0.00, -1.00, 538.7, 567.8)">-</text><text xml:space="preserve" font-family="Helvetica-Light,Helvetica" font-size="80.0" fill="#000000" transform="matrix(1.00, 0.00, -0.00, -1.00, 565.3, 567.8)">p</text><text xml:space="preserve" font-family="Helvetica-Light,Helvetica" font-size="80.0" fill="#000000" transform="matrix(1.00, 0.00, -0.00, -1.00, 614.2, 567.8)">i</text><text xml:space="preserve" font-family="Helvetica-Light,Helvetica" font-size="80.0" fill="#000000" transform="matrix(1.00, 0.00, -0.00, -1.00, 632.0, 567.8)">d</text><text xml:space="preserve" font-family="Helvetica-Light,Helvetica" font-size="80.0" fill="#000000" transform="matrix(1.00, 0.00, -0.00, -1.00, 680.8, 567.8)"> </text><text xml:space="preserve" font-family="Helvetica-Light,Helvetica" font-size="51.0" fill="#000000" transform="matrix(1.00, 0.00, -0.00, -1.00, 320.7, 500.2)">P</text><text xml:space="preserve" font-family="Helvetica-Light,Helvetica" font-size="51.0" fill="#000000" transform="matrix(1.00, 0.00, -0.00, -1.00, 351.9, 500.2)">I</text><text xml:space="preserve" font-family="Helvetica-Light,Helvetica" font-size="51.0" fill="#000000" transform="matrix(1.00, 0.00, -0.00, -1.00, 366.1, 500.2)">D</text><text xml:space="preserve" font-family="Helvetica-Light,Helvetica" font-size="51.0" fill="#000000" transform="matrix(1.00, 0.00, -0.00, -1.00, 402.9, 500.2)"> </text><text xml:space="preserve" font-family="Helvetica-Light,Helvetica" font-size="51.0" fill="#000000" transform="matrix(1.00, 0.00, -0.00, -1.00, 417.1, 500.2)">n</text><text xml:space="preserve" font-family="Helvetica-Light,Helvetica" font-size="51.0" fill="#000000" transform="matrix(1.00, 0.00, -0.00, -1.00, 445.4, 500.2)">p</text><text xml:space="preserve" font-family="Helvetica-Light,Helvetica" font-size="51.0" fill="#000000" transform="matrix(1.00, 0.00, -0.00, -1.00, 476.6, 500.2)">m</text><text xml:space="preserve" font-family="Helvetica-Light,Helvetica" font-size="51.0" fill="#000000" transform="matrix(1.00, 0.00, -0.00, -1.00, 519.1, 500.2)"> </text><text xml:space="preserve" font-family="Helvetica-Light,Helvetica" font-size="51.0" fill="#000000" transform="matrix(1.00, 0.00, -0.00, -1.00, 533.2, 500.2)">m</text><text xml:space="preserve" font-family="Helvetica-Light,Helvetica" font-size="51.0" fill="#000000" transform="matrix(1.00, 0.00, -0.00, -1.00, 575.7, 500.2)">o</text><text xml:space="preserve" font-family="Helvetica-Light,Helvetica" font-size="51.0" fill="#000000" transform="matrix(1.00, 0.00, -0.00, -1.00, 604.1, 500.2)">d</text><text xml:space="preserve" font-family="Helvetica-Light,Helvetica" font-size="51.0" fill="#000000" transform="matrix(1.00, 0.00, -0.00, -1.00, 635.2, 500.2)">u</text><text xml:space="preserve" font-family="Helvetica-Light,Helvetica" font-size="51.0" fill="#000000" transform="matrix(1.00, 0.00, -0.00, -1.00, 663.6, 500.2)">l</text><text xml:space="preserve" font-family="Helvetica-Light,Helvetica" font-size="51.0" fill="#000000" transform="matrix(1.00, 0.00, -0.00, -1.00, 674.9, 500.2)">e</text><text xml:space="preserve" font-family="Helvetica-Light,Helvetica" font-size="35.0" fill="#000000" transform="matrix(1.00, 0.00, -0.00, -1.00, 227.1, 182.2)">h</text><text xml:space="preserve" font-family="Helvetica-Light,Helvetica" font-size="35.0" fill="#000000" transform="matrix(1.00, 0.00, -0.00, -1.00, 246.6, 182.2)">t</text><text xml:space="preserve" font-family="Helvetica-Light,Helvetica" font-size="35.0" fill="#000000" transform="matrix(1.00, 0.00, -0.00, -1.00, 256.3, 182.2)">t</text><text xml:space="preserve" font-family="Helvetica-Light,Helvetica" font-size="35.0" fill="#000000" transform="matrix(1.00, 0.00, -0.00, -1.00, 266.0, 182.2)">p</text><text xml:space="preserve" font-family="Helvetica-Light,Helvetica" font-size="35.0" fill="#000000" transform="matrix(1.00, 0.00, -0.00, -1.00, 287.4, 182.2)">s</text><text xml:space="preserve" font-family="Helvetica-Light,Helvetica" font-size="35.0" fill="#000000" transform="matrix(1.00, 0.00, -0.00, -1.00, 304.9, 182.2)">:</text><text xml:space="preserve" font-family="Helvetica-Light,Helvetica" font-size="35.0" fill="#000000" transform="matrix(1.00, 0.00, -0.00, -1.00, 314.6, 182.2)">/</text><text xml:space="preserve" font-family="Helvetica-Light,Helvetica" font-size="35.0" fill="#000000" transform="matrix(1.00, 0.00, -0.00, -1.00, 324.4, 182.2)">/</text><text xml:space="preserve" font-family="Helvetica-Light,Helvetica" font-size="35.0" fill="#000000" transform="matrix(1.00, 0.00, -0.00, -1.00, 334.1, 182.2)">n</text><text xml:space="preserve" font-family="Helvetica-Light,Helvetica" font-size="35.0" fill="#000000" transform="matrix(1.00, 0.00, -0.00, -1.00, 353.6, 182.2)">p</text><text xml:space="preserve" font-family="Helvetica-Light,Helvetica" font-size="35.0" fill="#000000" transform="matrix(1.00, 0.00, -0.00, -1.00, 374.9, 182.2)">m</text><text xml:space="preserve" font-family="Helvetica-Light,Helvetica" font-size="35.0" fill="#000000" transform="matrix(1.00, 0.00, -0.00, -1.00, 404.1, 182.2)">j</text><text xml:space="preserve" font-family="Helvetica-Light,Helvetica" font-size="35.0" fill="#000000" transform="matrix(1.00, 0.00, -0.00, -1.00, 411.9, 182.2)">s</text><text xml:space="preserve" font-family="Helvetica-Light,Helvetica" font-size="35.0" fill="#000000" transform="matrix(1.00, 0.00, -0.00, -1.00, 429.4, 182.2)">.</text><text xml:space="preserve" font-family="Helvetica-Light,Helvetica" font-size="35.0" fill="#000000" transform="matrix(1.00, 0.00, -0.00, -1.00, 439.1, 182.2)">o</text><text xml:space="preserve" font-family="Helvetica-Light,Helvetica" font-size="35.0" fill="#000000" transform="matrix(1.00, 0.00, -0.00, -1.00, 458.6, 182.2)">r</text><text xml:space="preserve" font-family="Helvetica-Light,Helvetica" font-size="35.0" fill="#000000" transform="matrix(1.00, 0.00, -0.00, -1.00, 470.2, 182.2)">g</text><text xml:space="preserve" font-family="Helvetica-Light,Helvetica" font-size="35.0" fill="#000000" transform="matrix(1.00, 0.00, -0.00, -1.00, 491.6, 182.2)">/</text><text xml:space="preserve" font-family="Helvetica-Light,Helvetica" font-size="35.0" fill="#000000" transform="matrix(1.00, 0.00, -0.00, -1.00, 501.3, 182.2)">p</text><text xml:space="preserve" font-family="Helvetica-Light,Helvetica" font-size="35.0" fill="#000000" transform="matrix(1.00, 0.00, -0.00, -1.00, 522.7, 182.2)">a</text><text xml:space="preserve" font-family="Helvetica-Light,Helvetica" font-size="35.0" fill="#000000" transform="matrix(1.00, 0.00, -0.00, -1.00, 542.2, 182.2)">c</text><text xml:space="preserve" font-family="Helvetica-Light,Helvetica" font-size="35.0" fill="#000000" transform="matrix(1.00, 0.00, -0.00, -1.00, 561.6, 182.2)">k</text><text xml:space="preserve" font-family="Helvetica-Light,Helvetica" font-size="35.0" fill="#000000" transform="matrix(1.00, 0.00, -0.00, -1.00, 579.1, 182.2)">a</text><text xml:space="preserve" font-family="Helvetica-Light,Helvetica" font-size="35.0" fill="#000000" transform="matrix(1.00, 0.00, -0.00, -1.00, 598.6, 182.2)">g</text><text xml:space="preserve" font-family="Helvetica-Light,Helvetica" font-size="35.0" fill="#000000" transform="matrix(1.00, 0.00, -0.00, -1.00, 620.0, 182.2)">e</text><text xml:space="preserve" font-family="Helvetica-Light,Helvetica" font-size="35.0" fill="#000000" transform="matrix(1.00, 0.00, -0.00, -1.00, 639.4, 182.2)">/</text><text xml:space="preserve" font-family="Helvetica-Light,Helvetica" font-size="35.0" fill="#000000" transform="matrix(1.00, 0.00, -0.00, -1.00, 649.2, 182.2)">l</text><text xml:space="preserve" font-family="Helvetica-Light,Helvetica" font-size="35.0" fill="#000000" transform="matrix(1.00, 0.00, -0.00, -1.00, 656.9, 182.2)">i</text><text xml:space="preserve" font-family="Helvetica-Light,Helvetica" font-size="35.0" fill="#000000" transform="matrix(1.00, 0.00, -0.00, -1.00, 664.7, 182.2)">q</text><text xml:space="preserve" font-family="Helvetica-Light,Helvetica" font-size="35.0" fill="#000000" transform="matrix(1.00, 0.00, -0.00, -1.00, 686.1, 182.2)">u</text><text xml:space="preserve" font-family="Helvetica-Light,Helvetica" font-size="35.0" fill="#000000" transform="matrix(1.00, 0.00, -0.00, -1.00, 705.5, 182.2)">i</text><text xml:space="preserve" font-family="Helvetica-Light,Helvetica" font-size="35.0" fill="#000000" transform="matrix(1.00, 0.00, -0.00, -1.00, 713.3, 182.2)">d</text><text xml:space="preserve" font-family="Helvetica-Light,Helvetica" font-size="35.0" fill="#000000" transform="matrix(1.00, 0.00, -0.00, -1.00, 734.7, 182.2)">-</text><text xml:space="preserve" font-family="Helvetica-Light,Helvetica" font-size="35.0" fill="#000000" transform="matrix(1.00, 0.00, -0.00, -1.00, 746.4, 182.2)">p</text><text xml:space="preserve" font-family="Helvetica-Light,Helvetica" font-size="35.0" fill="#000000" transform="matrix(1.00, 0.00, -0.00, -1.00, 767.7, 182.2)">i</text><text xml:space="preserve" font-family="Helvetica-Light,Helvetica" font-size="35.0" fill="#000000" transform="matrix(1.00, 0.00, -0.00, -1.00, 775.5, 182.2)">d</text><text xml:space="preserve" font-family="Helvetica-Light,Helvetica" font-size="35.0" fill="#000000" transform="matrix(1.00, 0.00, -0.00, -1.00, 796.9, 182.2)"> </text><g><clipPath id="clip0x6000010b3680"><path d="M 226.1 177.7 L 796.9 177.7 L 796.9 181.5 L 226.1 181.5 Z M 226.1 177.7 "></path></clipPath><g clip-path="url(#clip0x6000010b3680)"><path d="M 82.4 40.6 L 652.2 40.6 " fill="none" stroke="#000000" stroke-width="1.75" transform="matrix(1.00, 0.00, 0.00, -1.00, 144.7, 220.2)"></path></g></g><text xml:space="preserve" font-family="Helvetica-Light,Helvetica" font-size="35.0" fill="#000000" transform="matrix(1.00, 0.00, -0.00, -1.00, 235.8, 119.2)">h</text><text xml:space="preserve" font-family="Helvetica-Light,Helvetica" font-size="35.0" fill="#000000" transform="matrix(1.00, 0.00, -0.00, -1.00, 255.3, 119.2)">t</text><text xml:space="preserve" font-family="Helvetica-Light,Helvetica" font-size="35.0" fill="#000000" transform="matrix(1.00, 0.00, -0.00, -1.00, 265.0, 119.2)">t</text><text xml:space="preserve" font-family="Helvetica-Light,Helvetica" font-size="35.0" fill="#000000" transform="matrix(1.00, 0.00, -0.00, -1.00, 274.8, 119.2)">p</text><text xml:space="preserve" font-family="Helvetica-Light,Helvetica" font-size="35.0" fill="#000000" transform="matrix(1.00, 0.00, -0.00, -1.00, 296.1, 119.2)">s</text><text xml:space="preserve" font-family="Helvetica-Light,Helvetica" font-size="35.0" fill="#000000" transform="matrix(1.00, 0.00, -0.00, -1.00, 313.6, 119.2)">:</text><text xml:space="preserve" font-family="Helvetica-Light,Helvetica" font-size="35.0" fill="#000000" transform="matrix(1.00, 0.00, -0.00, -1.00, 323.4, 119.2)">/</text><text xml:space="preserve" font-family="Helvetica-Light,Helvetica" font-size="35.0" fill="#000000" transform="matrix(1.00, 0.00, -0.00, -1.00, 333.1, 119.2)">/</text><text xml:space="preserve" font-family="Helvetica-Light,Helvetica" font-size="35.0" fill="#000000" transform="matrix(1.00, 0.00, -0.00, -1.00, 342.8, 119.2)">g</text><text xml:space="preserve" font-family="Helvetica-Light,Helvetica" font-size="35.0" fill="#000000" transform="matrix(1.00, 0.00, -0.00, -1.00, 364.2, 119.2)">i</text><text xml:space="preserve" font-family="Helvetica-Light,Helvetica" font-size="35.0" fill="#000000" transform="matrix(1.00, 0.00, -0.00, -1.00, 372.0, 119.2)">t</text><text xml:space="preserve" font-family="Helvetica-Light,Helvetica" font-size="35.0" fill="#000000" transform="matrix(1.00, 0.00, -0.00, -1.00, 381.7, 119.2)">h</text><text xml:space="preserve" font-family="Helvetica-Light,Helvetica" font-size="35.0" fill="#000000" transform="matrix(1.00, 0.00, -0.00, -1.00, 401.2, 119.2)">u</text><text xml:space="preserve" font-family="Helvetica-Light,Helvetica" font-size="35.0" fill="#000000" transform="matrix(1.00, 0.00, -0.00, -1.00, 420.6, 119.2)">b</text><text xml:space="preserve" font-family="Helvetica-Light,Helvetica" font-size="35.0" fill="#000000" transform="matrix(1.00, 0.00, -0.00, -1.00, 442.0, 119.2)">.</text><text xml:space="preserve" font-family="Helvetica-Light,Helvetica" font-size="35.0" fill="#000000" transform="matrix(1.00, 0.00, -0.00, -1.00, 451.7, 119.2)">c</text><text xml:space="preserve" font-family="Helvetica-Light,Helvetica" font-size="35.0" fill="#000000" transform="matrix(1.00, 0.00, -0.00, -1.00, 471.2, 119.2)">o</text><text xml:space="preserve" font-family="Helvetica-Light,Helvetica" font-size="35.0" fill="#000000" transform="matrix(1.00, 0.00, -0.00, -1.00, 490.7, 119.2)">m</text><text xml:space="preserve" font-family="Helvetica-Light,Helvetica" font-size="35.0" fill="#000000" transform="matrix(1.00, 0.00, -0.00, -1.00, 519.8, 119.2)">/</text><text xml:space="preserve" font-family="Helvetica-Light,Helvetica" font-size="35.0" fill="#000000" transform="matrix(1.00, 0.00, -0.00, -1.00, 529.6, 119.2)">h</text><text xml:space="preserve" font-family="Helvetica-Light,Helvetica" font-size="35.0" fill="#000000" transform="matrix(1.00, 0.00, -0.00, -1.00, 549.0, 119.2)">e</text><text xml:space="preserve" font-family="Helvetica-Light,Helvetica" font-size="35.0" fill="#000000" transform="matrix(1.00, 0.00, -0.00, -1.00, 568.5, 119.2)">k</text><text xml:space="preserve" font-family="Helvetica-Light,Helvetica" font-size="35.0" fill="#000000" transform="matrix(1.00, 0.00, -0.00, -1.00, 586.0, 119.2)">i</text><text xml:space="preserve" font-family="Helvetica-Light,Helvetica" font-size="35.0" fill="#000000" transform="matrix(1.00, 0.00, -0.00, -1.00, 593.7, 119.2)">k</text><text xml:space="preserve" font-family="Helvetica-Light,Helvetica" font-size="35.0" fill="#000000" transform="matrix(1.00, 0.00, -0.00, -1.00, 611.2, 119.2)">e</text><text xml:space="preserve" font-family="Helvetica-Light,Helvetica" font-size="35.0" fill="#000000" transform="matrix(1.00, 0.00, -0.00, -1.00, 630.7, 119.2)">/</text><text xml:space="preserve" font-family="Helvetica-Light,Helvetica" font-size="35.0" fill="#000000" transform="matrix(1.00, 0.00, -0.00, -1.00, 640.4, 119.2)">l</text><text xml:space="preserve" font-family="Helvetica-Light,Helvetica" font-size="35.0" fill="#000000" transform="matrix(1.00, 0.00, -0.00, -1.00, 648.2, 119.2)">i</text><text xml:space="preserve" font-family="Helvetica-Light,Helvetica" font-size="35.0" fill="#000000" transform="matrix(1.00, 0.00, -0.00, -1.00, 656.0, 119.2)">q</text><text xml:space="preserve" font-family="Helvetica-Light,Helvetica" font-size="35.0" fill="#000000" transform="matrix(1.00, 0.00, -0.00, -1.00, 677.4, 119.2)">u</text><text xml:space="preserve" font-family="Helvetica-Light,Helvetica" font-size="35.0" fill="#000000" transform="matrix(1.00, 0.00, -0.00, -1.00, 696.8, 119.2)">i</text><text xml:space="preserve" font-family="Helvetica-Light,Helvetica" font-size="35.0" fill="#000000" transform="matrix(1.00, 0.00, -0.00, -1.00, 704.6, 119.2)">d</text><text xml:space="preserve" font-family="Helvetica-Light,Helvetica" font-size="35.0" fill="#000000" transform="matrix(1.00, 0.00, -0.00, -1.00, 726.0, 119.2)">-</text><text xml:space="preserve" font-family="Helvetica-Light,Helvetica" font-size="35.0" fill="#000000" transform="matrix(1.00, 0.00, -0.00, -1.00, 737.6, 119.2)">p</text><text xml:space="preserve" font-family="Helvetica-Light,Helvetica" font-size="35.0" fill="#000000" transform="matrix(1.00, 0.00, -0.00, -1.00, 759.0, 119.2)">i</text><text xml:space="preserve" font-family="Helvetica-Light,Helvetica" font-size="35.0" fill="#000000" transform="matrix(1.00, 0.00, -0.00, -1.00, 766.8, 119.2)">d</text><g><clipPath id="clip0x6000010aa440"><path d="M 234.8 114.7 L 788.2 114.7 L 788.2 118.5 L 234.8 118.5 Z M 234.8 114.7 "></path></clipPath><g clip-path="url(#clip0x6000010aa440)"><path d="M 91.1 103.6 L 643.4 103.6 " fill="none" stroke="#000000" stroke-width="1.75" transform="matrix(1.00, 0.00, 0.00, -1.00, 144.7, 220.2)"></path></g></g></g></svg>