<?xml version="1.0" encoding="UTF-8" standalone="no"?><svg xmlns="http://www.w3.org/2000/svg" xmlns:xlink="http://www.w3.org/1999/xlink" clip-rule="evenodd" stroke-miterlimit="10" viewBox="0 0 1024 768"><desc>SVG generated by Keynote</desc><defs></defs><g transform="matrix(1.00, 0.00, -0.00, -1.00, 0.0, 768.0)"><path d="M 0.0 768.0 L 1024.0 768.0 L 1024.0 0.0 L 0.0 0.0 Z M 0.0 768.0 " fill="#FEFFFF"></path><g><clipPath id="clip0x6080010a0c00"><path d="M 75.0 698.0 L 495.0 698.0 L 495.0 70.0 L 75.0 70.0 Z M 75.0 698.0 "></path></clipPath><g clip-path="url(#clip0x6080010a0c00)"><image xlink:href="FBBC89D6F912DF80A54D5F33F95A542B.png" width="2448.00" height="3264.00" transform="matrix(0.19, 0.00, -0.00, -0.19, 49.5, 698.0)"></image></g></g><g><clipPath id="clip0x600000ea65a0"><path d="M 529.0 367.0 L 949.0 367.0 L 949.0 70.0 L 529.0 70.0 Z M 529.0 367.0 "></path></clipPath><g clip-path="url(#clip0x600000ea65a0)"><image xlink:href="F24A2A3FDD82C31A4F6F7316C981E4E4.png" width="3264.00" height="2448.00" transform="matrix(0.13, 0.00, -0.00, -0.13, 529.0, 376.0)"></image></g></g><g><clipPath id="clip0x608000eab7c0"><path d="M 529.0 698.0 L 949.0 698.0 L 949.0 401.0 L 529.0 401.0 Z M 529.5 698.0 "></path></clipPath><g clip-path="url(#clip0x608000eab7c0)"><image xlink:href="B4A687A4FED12E9EDE85F9438F63243A.png" width="3264.00" height="2448.00" transform="matrix(0.13, 0.00, -0.00, -0.13, 529.5, 707.0)"></image></g></g></g></svg>